<?xml version="1.0" encoding="UTF-8" standalone="no"?>
<!-- Created with Inkscape (http://www.inkscape.org/) -->

<svg
   width="40"
   height="40"
   viewBox="0 0 10.583333 10.583333"
   version="1.1"
   id="svg5"
   xml:space="preserve"
   inkscape:version="1.2.2 (b0a8486541, 2022-12-01)"
   sodipodi:docname="stratigraphy.svg"
   xmlns:inkscape="http://www.inkscape.org/namespaces/inkscape"
   xmlns:sodipodi="http://sodipodi.sourceforge.net/DTD/sodipodi-0.dtd"
   xmlns="http://www.w3.org/2000/svg"
   xmlns:svg="http://www.w3.org/2000/svg"><sodipodi:namedview
     id="namedview7"
     pagecolor="#ffffff"
     bordercolor="#111111"
     borderopacity="1"
     inkscape:showpageshadow="0"
     inkscape:pageopacity="0"
     inkscape:pagecheckerboard="1"
     inkscape:deskcolor="#d1d1d1"
     inkscape:document-units="mm"
     showgrid="false"
     showguides="true"
     inkscape:zoom="20.70196"
     inkscape:cx="19.201081"
     inkscape:cy="23.5968"
     inkscape:window-width="3374"
     inkscape:window-height="1371"
     inkscape:window-x="0"
     inkscape:window-y="0"
     inkscape:window-maximized="1"
     inkscape:current-layer="layer1"><sodipodi:guide
       position="-0.002259311,10.135989"
       orientation="1,0"
       id="guide978"
       inkscape:locked="false" /><sodipodi:guide
       position="2.4283127,10.583333"
       orientation="0,-1"
       id="guide980"
       inkscape:locked="false" /><sodipodi:guide
       position="10.582331,8.8579529"
       orientation="1,0"
       id="guide982"
       inkscape:locked="false" /><sodipodi:guide
       position="3.9110113,0.010886799"
       orientation="0,-1"
       id="guide984"
       inkscape:locked="false" /></sodipodi:namedview><defs
     id="defs2" /><g
     inkscape:label="Layer 1"
     inkscape:groupmode="layer"
     id="layer1"><g
       id="g3222"><rect
         style="fill:none;stroke:#000000;stroke-width:0.264583;stroke-opacity:1"
         id="rect291"
         width="10.313128"
         height="1.9747366"
         x="0.13116066"
         y="0.13900748" /><rect
         style="fill:none;stroke:#000000;stroke-width:0.264583;stroke-opacity:1;fill-opacity:1"
         id="rect970"
         width="10.319952"
         height="2.736201"
         x="0.14002013"
         y="2.1382599" /><rect
         style="fill:none;stroke:#000000;stroke-width:0.264583;stroke-opacity:1"
         id="rect972"
         width="10.323304"
         height="1.9092314"
         x="0.1162781"
         y="4.8662567" /><rect
         style="fill:none;stroke:#000000;stroke-width:0.260743;stroke-opacity:1"
         id="rect974"
         width="10.330085"
         height="0.66439611"
         x="0.12185183"
         y="6.7859249" /><rect
         style="fill:none;stroke:#000000;stroke-width:0.264583;stroke-opacity:1"
         id="rect976"
         width="10.305483"
         height="2.9740088"
         x="0.14068432"
         y="7.4785647" /><circle
         id="path3109"
         style="fill:#000000;stroke:none;stroke-width:0.264583"
         cx="2.0933213"
         cy="3.6309364"
         r="0.39687499" /><circle
         id="path3111"
         style="fill:#000000;stroke:none;stroke-width:0.264583"
         cx="4.6588759"
         cy="3.7931902"
         r="0.39687499" /><circle
         id="path3113"
         style="fill:#000000;stroke:none;stroke-width:0.264583"
         cx="2.2079475"
         cy="2.7023966"
         r="0.39687499" /><circle
         id="path3115"
         style="fill:#000000;stroke:none;stroke-width:0.264583"
         cx="0.69379652"
         cy="3.0650461"
         r="0.39687499" /><circle
         id="path3117"
         style="fill:#000000;stroke:none;stroke-width:0.264583"
         cx="0.95779568"
         cy="4.204865"
         r="0.39687499" /><circle
         id="path3119"
         style="fill:#000000;stroke:none;stroke-width:0.264583"
         cx="3.7220981"
         cy="3.3050315"
         r="0.39687499" /><circle
         id="path3121"
         style="fill:#000000;stroke:none;stroke-width:0.264583"
         cx="3.4717283"
         cy="4.0027223"
         r="0.39687499" /><circle
         id="path3123"
         style="fill:#000000;stroke:none;stroke-width:0.264583"
         cx="2.9196668"
         cy="2.888514"
         r="0.39687499" /><circle
         id="path3125"
         style="fill:#000000;stroke:none;stroke-width:0.264583"
         cx="7.1403084"
         cy="3.4026334"
         r="0.39687499" /><circle
         id="path3127"
         style="fill:#000000;stroke:none;stroke-width:0.264583"
         cx="5.3005514"
         cy="2.5666528"
         r="0.39687499" /><circle
         id="path3129"
         style="fill:#000000;stroke:none;stroke-width:0.264583"
         cx="5.9514132"
         cy="3.6664326"
         r="0.39687499" /><circle
         id="path3131"
         style="fill:#000000;stroke:none;stroke-width:0.264583"
         cx="5.2059455"
         cy="4.4238324"
         r="0.39687499" /><circle
         id="path3133"
         style="fill:#000000;stroke:none;stroke-width:0.264583"
         cx="8.8148651"
         cy="4.1179471"
         r="0.39687499" /><circle
         id="path3135"
         style="fill:#000000;stroke:none;stroke-width:0.264583"
         cx="8.9086723"
         cy="3.4783185"
         r="0.39687499" /><circle
         id="path3137"
         style="fill:#000000;stroke:none;stroke-width:0.264583"
         cx="8.1665497"
         cy="2.8020952"
         r="0.39687499" /><circle
         id="path3139"
         style="fill:#000000;stroke:none;stroke-width:0.264583"
         cx="7.3738036"
         cy="4.5002666"
         r="0.39687499" /><circle
         id="path3141"
         style="fill:#000000;stroke:none;stroke-width:0.264583"
         cx="6.1282444"
         cy="2.7544174"
         r="0.39687499" /><circle
         id="path3143"
         style="fill:#000000;stroke:none;stroke-width:0.264583"
         cx="9.4177999"
         cy="2.8350949"
         r="0.39687499" /><circle
         id="path3145"
         style="fill:#000000;stroke:none;stroke-width:0.264583"
         cx="9.7000713"
         cy="4.1336236"
         r="0.39687499" /></g><g
       id="g3274"><path
         id="rect3224"
         style="fill:none;stroke:#000000;stroke-width:0.264583"
         d="M 0.13116066,0.13900748 H 10.444289 V 2.1137441 H 0.13116066 Z" /><path
         id="rect3226"
         style="fill:none;stroke:#000000;stroke-width:0.264583"
         d="M 0.14002013,2.1382599 H 10.459972 v 2.736201 H 0.14002013 Z" /><path
         id="rect3228"
         style="fill:none;stroke:#000000;stroke-width:0.264583"
         d="M 0.1162781,4.8662567 H 10.439582 V 6.7754881 H 0.1162781 Z" /><path
         id="rect3230"
         style="fill:none;stroke:#000000;stroke-width:0.260743"
         d="M 0.12185183,6.7859249 H 10.451937 V 7.450321 H 0.12185183 Z" /><path
         id="rect3232"
         style="fill:none;stroke:#000000;stroke-width:0.264583"
         d="M 0.14068432,7.4785647 H 10.446167 V 10.452574 H 0.14068432 Z" /><path
         id="circle3234"
         style="stroke-width:0.264583"
         d="m 2.4901963,3.6309364 a 0.39687499,0.39687499 0 0 1 -0.396875,0.396875 0.39687499,0.39687499 0 0 1 -0.396875,-0.396875 0.39687499,0.39687499 0 0 1 0.396875,-0.396875 0.39687499,0.39687499 0 0 1 0.396875,0.396875 z" /><path
         id="circle3236"
         style="stroke-width:0.264583"
         d="m 5.0557509,3.7931902 a 0.39687499,0.39687499 0 0 1 -0.396875,0.396875 0.39687499,0.39687499 0 0 1 -0.396875,-0.396875 0.39687499,0.39687499 0 0 1 0.396875,-0.396875 0.39687499,0.39687499 0 0 1 0.396875,0.396875 z" /><path
         id="circle3238"
         style="stroke-width:0.264583"
         d="m 2.6048225,2.7023966 a 0.39687499,0.39687499 0 0 1 -0.396875,0.396875 0.39687499,0.39687499 0 0 1 -0.396875,-0.396875 0.39687499,0.39687499 0 0 1 0.396875,-0.396875 0.39687499,0.39687499 0 0 1 0.396875,0.396875 z" /><path
         id="circle3240"
         style="stroke-width:0.264583"
         d="m 1.0906715,3.0650461 a 0.39687499,0.39687499 0 0 1 -0.39687498,0.396875 0.39687499,0.39687499 0 0 1 -0.396875,-0.396875 0.39687499,0.39687499 0 0 1 0.396875,-0.396875 0.39687499,0.39687499 0 0 1 0.39687498,0.396875 z" /><path
         id="circle3242"
         style="stroke-width:0.264583"
         d="M 1.3546707,4.204865 A 0.39687499,0.39687499 0 0 1 0.95779568,4.60174 0.39687499,0.39687499 0 0 1 0.56092069,4.204865 0.39687499,0.39687499 0 0 1 0.95779568,3.80799 0.39687499,0.39687499 0 0 1 1.3546707,4.204865 Z" /><path
         id="circle3244"
         style="stroke-width:0.264583"
         d="m 4.1189731,3.3050315 a 0.39687499,0.39687499 0 0 1 -0.396875,0.396875 0.39687499,0.39687499 0 0 1 -0.396875,-0.396875 0.39687499,0.39687499 0 0 1 0.396875,-0.396875 0.39687499,0.39687499 0 0 1 0.396875,0.396875 z" /><path
         id="circle3246"
         style="stroke-width:0.264583"
         d="m 3.8686033,4.0027223 a 0.39687499,0.39687499 0 0 1 -0.396875,0.396875 0.39687499,0.39687499 0 0 1 -0.396875,-0.396875 0.39687499,0.39687499 0 0 1 0.396875,-0.396875 0.39687499,0.39687499 0 0 1 0.396875,0.396875 z" /><path
         id="circle3248"
         style="stroke-width:0.264583"
         d="M 3.3165418,2.888514 A 0.39687499,0.39687499 0 0 1 2.9196668,3.285389 0.39687499,0.39687499 0 0 1 2.5227918,2.888514 0.39687499,0.39687499 0 0 1 2.9196668,2.491639 0.39687499,0.39687499 0 0 1 3.3165418,2.888514 Z" /><path
         id="circle3250"
         style="stroke-width:0.264583"
         d="m 7.5371834,3.4026334 a 0.39687499,0.39687499 0 0 1 -0.396875,0.396875 0.39687499,0.39687499 0 0 1 -0.396875,-0.396875 0.39687499,0.39687499 0 0 1 0.396875,-0.396875 0.39687499,0.39687499 0 0 1 0.396875,0.396875 z" /><path
         id="circle3252"
         style="stroke-width:0.264583"
         d="m 5.6974264,2.5666528 a 0.39687499,0.39687499 0 0 1 -0.396875,0.396875 0.39687499,0.39687499 0 0 1 -0.396875,-0.396875 0.39687499,0.39687499 0 0 1 0.396875,-0.396875 0.39687499,0.39687499 0 0 1 0.396875,0.396875 z" /><path
         id="circle3254"
         style="stroke-width:0.264583"
         d="m 6.3482881,3.6664326 a 0.39687499,0.39687499 0 0 1 -0.3968749,0.396875 0.39687499,0.39687499 0 0 1 -0.396875,-0.396875 0.39687499,0.39687499 0 0 1 0.396875,-0.396875 0.39687499,0.39687499 0 0 1 0.3968749,0.396875 z" /><path
         id="circle3256"
         style="stroke-width:0.264583"
         d="m 5.6028205,4.4238324 a 0.39687499,0.39687499 0 0 1 -0.396875,0.396875 0.39687499,0.39687499 0 0 1 -0.396875,-0.396875 0.39687499,0.39687499 0 0 1 0.396875,-0.396875 0.39687499,0.39687499 0 0 1 0.396875,0.396875 z" /><path
         id="circle3258"
         style="stroke-width:0.264583"
         d="m 9.2117401,4.1179471 a 0.39687499,0.39687499 0 0 1 -0.396875,0.396875 0.39687499,0.39687499 0 0 1 -0.396875,-0.396875 0.39687499,0.39687499 0 0 1 0.396875,-0.396875 0.39687499,0.39687499 0 0 1 0.396875,0.396875 z" /><path
         id="circle3260"
         style="stroke-width:0.264583"
         d="m 9.3055473,3.4783185 a 0.39687499,0.39687499 0 0 1 -0.396875,0.3968749 0.39687499,0.39687499 0 0 1 -0.396875,-0.3968749 0.39687499,0.39687499 0 0 1 0.396875,-0.396875 0.39687499,0.39687499 0 0 1 0.396875,0.396875 z" /><path
         id="circle3262"
         style="stroke-width:0.264583"
         d="m 8.5634247,2.8020952 a 0.39687499,0.39687499 0 0 1 -0.396875,0.396875 0.39687499,0.39687499 0 0 1 -0.396875,-0.396875 0.39687499,0.39687499 0 0 1 0.396875,-0.396875 0.39687499,0.39687499 0 0 1 0.396875,0.396875 z" /><path
         id="circle3264"
         style="stroke-width:0.264583"
         d="m 7.7706786,4.5002666 a 0.39687499,0.39687499 0 0 1 -0.396875,0.3968749 0.39687499,0.39687499 0 0 1 -0.396875,-0.3968749 0.39687499,0.39687499 0 0 1 0.396875,-0.396875 0.39687499,0.39687499 0 0 1 0.396875,0.396875 z" /><path
         id="circle3266"
         style="stroke-width:0.264583"
         d="m 6.5251194,2.7544174 a 0.39687499,0.39687499 0 0 1 -0.396875,0.396875 0.39687499,0.39687499 0 0 1 -0.396875,-0.396875 0.39687499,0.39687499 0 0 1 0.396875,-0.396875 0.39687499,0.39687499 0 0 1 0.396875,0.396875 z" /><path
         id="circle3268"
         style="stroke-width:0.264583"
         d="m 9.8146749,2.8350949 a 0.39687499,0.39687499 0 0 1 -0.396875,0.396875 0.39687499,0.39687499 0 0 1 -0.3968749,-0.396875 0.39687499,0.39687499 0 0 1 0.3968749,-0.396875 0.39687499,0.39687499 0 0 1 0.396875,0.396875 z" /><path
         id="circle3270"
         style="stroke-width:0.264583"
         d="m 10.096946,4.1336236 a 0.39687499,0.39687499 0 0 1 -0.3968747,0.396875 0.39687499,0.39687499 0 0 1 -0.396875,-0.396875 0.39687499,0.39687499 0 0 1 0.396875,-0.396875 0.39687499,0.39687499 0 0 1 0.3968747,0.396875 z" /></g></g></svg>
