<?xml version="1.0" encoding="UTF-8" standalone="no"?>
<!-- Created with Inkscape (http://www.inkscape.org/) -->

<svg
   width="40"
   height="40"
   viewBox="0 0 10.583333 10.583333"
   version="1.1"
   id="svg5"
   xml:space="preserve"
   inkscape:version="1.2.2 (b0a8486541, 2022-12-01)"
   sodipodi:docname="unconformity.svg"
   xmlns:inkscape="http://www.inkscape.org/namespaces/inkscape"
   xmlns:sodipodi="http://sodipodi.sourceforge.net/DTD/sodipodi-0.dtd"
   xmlns="http://www.w3.org/2000/svg"
   xmlns:svg="http://www.w3.org/2000/svg"><sodipodi:namedview
     id="namedview7"
     pagecolor="#ffffff"
     bordercolor="#111111"
     borderopacity="1"
     inkscape:showpageshadow="0"
     inkscape:pageopacity="0"
     inkscape:pagecheckerboard="1"
     inkscape:deskcolor="#d1d1d1"
     inkscape:document-units="mm"
     showgrid="false"
     showguides="true"
     inkscape:zoom="7.319248"
     inkscape:cx="-5.2601032"
     inkscape:cy="33.541697"
     inkscape:window-width="3374"
     inkscape:window-height="1371"
     inkscape:window-x="0"
     inkscape:window-y="0"
     inkscape:window-maximized="1"
     inkscape:current-layer="layer1"><sodipodi:guide
       position="-0.002259311,10.135989"
       orientation="1,0"
       id="guide978"
       inkscape:locked="false" /><sodipodi:guide
       position="2.4283127,10.583333"
       orientation="0,-1"
       id="guide980"
       inkscape:locked="false" /><sodipodi:guide
       position="10.582331,8.8579529"
       orientation="1,0"
       id="guide982"
       inkscape:locked="false" /><sodipodi:guide
       position="3.9110113,0.010886799"
       orientation="0,-1"
       id="guide984"
       inkscape:locked="false" /></sodipodi:namedview><defs
     id="defs2" /><g
     inkscape:label="Layer 1"
     inkscape:groupmode="layer"
     id="layer1"><g
       id="g3222"><rect
         style="fill:none;stroke:#000000;stroke-width:0.264583;stroke-opacity:1"
         id="rect291"
         width="10.313128"
         height="1.9747366"
         x="0.13116066"
         y="0.13900748" /><rect
         style="fill:none;stroke:#000000;stroke-width:0.264583;stroke-opacity:1;fill-opacity:1"
         id="rect970"
         width="10.319952"
         height="2.736201"
         x="0.14002013"
         y="2.1382599" /><circle
         id="path3109"
         style="fill:#000000;stroke:none;stroke-width:0.264583"
         cx="2.0933213"
         cy="3.6309364"
         r="0.39687499" /><circle
         id="path3111"
         style="fill:#000000;stroke:none;stroke-width:0.264583"
         cx="4.6588759"
         cy="3.7931902"
         r="0.39687499" /><circle
         id="path3113"
         style="fill:#000000;stroke:none;stroke-width:0.264583"
         cx="2.2079475"
         cy="2.7023966"
         r="0.39687499" /><circle
         id="path3115"
         style="fill:#000000;stroke:none;stroke-width:0.264583"
         cx="0.69379652"
         cy="3.0650461"
         r="0.39687499" /><circle
         id="path3117"
         style="fill:#000000;stroke:none;stroke-width:0.264583"
         cx="0.95779568"
         cy="4.204865"
         r="0.39687499" /><circle
         id="path3119"
         style="fill:#000000;stroke:none;stroke-width:0.264583"
         cx="3.7220981"
         cy="3.3050315"
         r="0.39687499" /><circle
         id="path3121"
         style="fill:#000000;stroke:none;stroke-width:0.264583"
         cx="3.4717283"
         cy="4.0027223"
         r="0.39687499" /><circle
         id="path3123"
         style="fill:#000000;stroke:none;stroke-width:0.264583"
         cx="2.9196668"
         cy="2.888514"
         r="0.39687499" /><circle
         id="path3125"
         style="fill:#000000;stroke:none;stroke-width:0.264583"
         cx="7.1403084"
         cy="3.4026334"
         r="0.39687499" /><circle
         id="path3127"
         style="fill:#000000;stroke:none;stroke-width:0.264583"
         cx="5.3005514"
         cy="2.5666528"
         r="0.39687499" /><circle
         id="path3129"
         style="fill:#000000;stroke:none;stroke-width:0.264583"
         cx="5.9514132"
         cy="3.6664326"
         r="0.39687499" /><circle
         id="path3131"
         style="fill:#000000;stroke:none;stroke-width:0.264583"
         cx="5.2059455"
         cy="4.4238324"
         r="0.39687499" /><circle
         id="path3133"
         style="fill:#000000;stroke:none;stroke-width:0.264583"
         cx="8.8148651"
         cy="4.1179471"
         r="0.39687499" /><circle
         id="path3135"
         style="fill:#000000;stroke:none;stroke-width:0.264583"
         cx="8.9086723"
         cy="3.4783185"
         r="0.39687499" /><circle
         id="path3137"
         style="fill:#000000;stroke:none;stroke-width:0.264583"
         cx="8.1665497"
         cy="2.8020952"
         r="0.39687499" /><circle
         id="path3139"
         style="fill:#000000;stroke:none;stroke-width:0.264583"
         cx="7.3738036"
         cy="4.5002666"
         r="0.39687499" /><circle
         id="path3141"
         style="fill:#000000;stroke:none;stroke-width:0.264583"
         cx="6.1282444"
         cy="2.7544174"
         r="0.39687499" /><circle
         id="path3143"
         style="fill:#000000;stroke:none;stroke-width:0.264583"
         cx="9.4177999"
         cy="2.8350949"
         r="0.39687499" /><circle
         id="path3145"
         style="fill:#000000;stroke:none;stroke-width:0.264583"
         cx="9.7000713"
         cy="4.1336236"
         r="0.39687499" /></g><g
       id="g3274"><path
         id="rect3224"
         style="fill:none;stroke:#000000;stroke-width:0.264583"
         d="M 0.13116066,0.13900748 H 10.444289 V 2.1137441 H 0.13116066 Z" /><path
         id="rect3226"
         style="fill:none;stroke:#000000;stroke-width:0.264583"
         d="M 0.14002013,2.1382599 H 10.459972 v 2.736201 H 0.14002013 Z" /><path
         id="rect3232"
         style="fill:none;stroke:#000000;stroke-width:0.264583"
         d="M 0.1437297,4.949455 10.456801,4.8885474 10.446167,10.452574 H 0.14068432 Z"
         sodipodi:nodetypes="ccccc" /><path
         id="circle3234"
         style="stroke-width:0.264583"
         d="m 2.4901963,3.6309364 a 0.39687499,0.39687499 0 0 1 -0.396875,0.396875 0.39687499,0.39687499 0 0 1 -0.396875,-0.396875 0.39687499,0.39687499 0 0 1 0.396875,-0.396875 0.39687499,0.39687499 0 0 1 0.396875,0.396875 z" /><path
         id="circle3236"
         style="stroke-width:0.264583"
         d="m 5.0557509,3.7931902 a 0.39687499,0.39687499 0 0 1 -0.396875,0.396875 0.39687499,0.39687499 0 0 1 -0.396875,-0.396875 0.39687499,0.39687499 0 0 1 0.396875,-0.396875 0.39687499,0.39687499 0 0 1 0.396875,0.396875 z" /><path
         id="circle3238"
         style="stroke-width:0.264583"
         d="m 2.6048225,2.7023966 a 0.39687499,0.39687499 0 0 1 -0.396875,0.396875 0.39687499,0.39687499 0 0 1 -0.396875,-0.396875 0.39687499,0.39687499 0 0 1 0.396875,-0.396875 0.39687499,0.39687499 0 0 1 0.396875,0.396875 z" /><path
         id="circle3240"
         style="stroke-width:0.264583"
         d="m 1.0906715,3.0650461 a 0.39687499,0.39687499 0 0 1 -0.39687498,0.396875 0.39687499,0.39687499 0 0 1 -0.396875,-0.396875 0.39687499,0.39687499 0 0 1 0.396875,-0.396875 0.39687499,0.39687499 0 0 1 0.39687498,0.396875 z" /><path
         id="circle3242"
         style="stroke-width:0.264583"
         d="M 1.3546707,4.204865 A 0.39687499,0.39687499 0 0 1 0.95779568,4.60174 0.39687499,0.39687499 0 0 1 0.56092069,4.204865 0.39687499,0.39687499 0 0 1 0.95779568,3.80799 0.39687499,0.39687499 0 0 1 1.3546707,4.204865 Z" /><path
         id="circle3244"
         style="stroke-width:0.264583"
         d="m 4.1189731,3.3050315 a 0.39687499,0.39687499 0 0 1 -0.396875,0.396875 0.39687499,0.39687499 0 0 1 -0.396875,-0.396875 0.39687499,0.39687499 0 0 1 0.396875,-0.396875 0.39687499,0.39687499 0 0 1 0.396875,0.396875 z" /><path
         id="circle3246"
         style="stroke-width:0.264583"
         d="m 3.8686033,4.0027223 a 0.39687499,0.39687499 0 0 1 -0.396875,0.396875 0.39687499,0.39687499 0 0 1 -0.396875,-0.396875 0.39687499,0.39687499 0 0 1 0.396875,-0.396875 0.39687499,0.39687499 0 0 1 0.396875,0.396875 z" /><path
         id="circle3248"
         style="stroke-width:0.264583"
         d="M 3.3165418,2.888514 A 0.39687499,0.39687499 0 0 1 2.9196668,3.285389 0.39687499,0.39687499 0 0 1 2.5227918,2.888514 0.39687499,0.39687499 0 0 1 2.9196668,2.491639 0.39687499,0.39687499 0 0 1 3.3165418,2.888514 Z" /><path
         id="circle3250"
         style="stroke-width:0.264583"
         d="m 7.5371834,3.4026334 a 0.39687499,0.39687499 0 0 1 -0.396875,0.396875 0.39687499,0.39687499 0 0 1 -0.396875,-0.396875 0.39687499,0.39687499 0 0 1 0.396875,-0.396875 0.39687499,0.39687499 0 0 1 0.396875,0.396875 z" /><path
         id="circle3252"
         style="stroke-width:0.264583"
         d="m 5.6974264,2.5666528 a 0.39687499,0.39687499 0 0 1 -0.396875,0.396875 0.39687499,0.39687499 0 0 1 -0.396875,-0.396875 0.39687499,0.39687499 0 0 1 0.396875,-0.396875 0.39687499,0.39687499 0 0 1 0.396875,0.396875 z" /><path
         id="circle3254"
         style="stroke-width:0.264583"
         d="m 6.3482881,3.6664326 a 0.39687499,0.39687499 0 0 1 -0.3968749,0.396875 0.39687499,0.39687499 0 0 1 -0.396875,-0.396875 0.39687499,0.39687499 0 0 1 0.396875,-0.396875 0.39687499,0.39687499 0 0 1 0.3968749,0.396875 z" /><path
         id="circle3256"
         style="stroke-width:0.264583"
         d="m 5.6028205,4.4238324 a 0.39687499,0.39687499 0 0 1 -0.396875,0.396875 0.39687499,0.39687499 0 0 1 -0.396875,-0.396875 0.39687499,0.39687499 0 0 1 0.396875,-0.396875 0.39687499,0.39687499 0 0 1 0.396875,0.396875 z" /><path
         id="circle3258"
         style="stroke-width:0.264583"
         d="m 9.2117401,4.1179471 a 0.39687499,0.39687499 0 0 1 -0.396875,0.396875 0.39687499,0.39687499 0 0 1 -0.396875,-0.396875 0.39687499,0.39687499 0 0 1 0.396875,-0.396875 0.39687499,0.39687499 0 0 1 0.396875,0.396875 z" /><path
         id="circle3260"
         style="stroke-width:0.264583"
         d="m 9.3055473,3.4783185 a 0.39687499,0.39687499 0 0 1 -0.396875,0.3968749 0.39687499,0.39687499 0 0 1 -0.396875,-0.3968749 0.39687499,0.39687499 0 0 1 0.396875,-0.396875 0.39687499,0.39687499 0 0 1 0.396875,0.396875 z" /><path
         id="circle3262"
         style="stroke-width:0.264583"
         d="m 8.5634247,2.8020952 a 0.39687499,0.39687499 0 0 1 -0.396875,0.396875 0.39687499,0.39687499 0 0 1 -0.396875,-0.396875 0.39687499,0.39687499 0 0 1 0.396875,-0.396875 0.39687499,0.39687499 0 0 1 0.396875,0.396875 z" /><path
         id="circle3264"
         style="stroke-width:0.264583"
         d="m 7.7706786,4.5002666 a 0.39687499,0.39687499 0 0 1 -0.396875,0.3968749 0.39687499,0.39687499 0 0 1 -0.396875,-0.3968749 0.39687499,0.39687499 0 0 1 0.396875,-0.396875 0.39687499,0.39687499 0 0 1 0.396875,0.396875 z" /><path
         id="circle3266"
         style="stroke-width:0.264583"
         d="m 6.5251194,2.7544174 a 0.39687499,0.39687499 0 0 1 -0.396875,0.396875 0.39687499,0.39687499 0 0 1 -0.396875,-0.396875 0.39687499,0.39687499 0 0 1 0.396875,-0.396875 0.39687499,0.39687499 0 0 1 0.396875,0.396875 z" /><path
         id="circle3268"
         style="stroke-width:0.264583"
         d="m 9.8146749,2.8350949 a 0.39687499,0.39687499 0 0 1 -0.396875,0.396875 0.39687499,0.39687499 0 0 1 -0.3968749,-0.396875 0.39687499,0.39687499 0 0 1 0.3968749,-0.396875 0.39687499,0.39687499 0 0 1 0.396875,0.396875 z" /><path
         id="circle3270"
         style="stroke-width:0.264583"
         d="m 10.096946,4.1336236 a 0.39687499,0.39687499 0 0 1 -0.3968747,0.396875 0.39687499,0.39687499 0 0 1 -0.396875,-0.396875 0.39687499,0.39687499 0 0 1 0.396875,-0.396875 0.39687499,0.39687499 0 0 1 0.3968747,0.396875 z" /></g><path
       style="fill:none;stroke:#000000;stroke-width:0.264583;stroke-opacity:1"
       id="path3819"
       d="M 0.2642694,9.581594 C 0.69197767,9.4378551 1.0658252,9.1782698 1.4369147,8.9285928 1.8947431,8.6150219 2.3224755,8.2588538 2.7265937,7.8789735 2.9835607,7.637419 3.142747,7.4697999 3.3902538,7.217326 3.4983221,7.102881 3.6068539,6.9888716 3.7144589,6.8739908 3.8602938,6.7182952 4.1244144,6.432851 4.2725332,6.2688789 4.4067145,6.1203358 4.5256862,5.9859335 4.6525679,5.8329938 c 0.041863,-0.050461 0.082107,-0.1022453 0.1231599,-0.1533679 0.063716,-0.084669 0.090764,-0.1169963 0.1448787,-0.2002676 0.037835,-0.05822 0.064012,-0.104993 0.075741,-0.1729727 0.00146,-0.042961 0.00249,-0.085728 0.012427,-0.1278046 0.0046,-0.019489 0.016148,-0.05425 0.022325,-0.073518 0.013735,-0.041669 0.031738,-0.081691 0.047805,-0.122464 0,0 -8.732e-4,-4.762e-4 -8.732e-4,-4.762e-4 v 0 c -0.016065,0.040776 -0.034071,0.080799 -0.047805,0.1224714 -0.00618,0.019259 -0.017732,0.054051 -0.022331,0.073529 -0.00994,0.042076 -0.011001,0.084842 -0.01243,0.1278041 -0.01171,0.067966 -0.037877,0.1147392 -0.075693,0.1729517 C 4.8656753,5.562157 4.8386341,5.5944854 4.7749335,5.6791616 4.7338882,5.7302881 4.693654,5.7820763 4.6517977,5.8325408 4.5249414,5.9854866 4.4059742,6.1199093 4.2718122,6.2684522 4.1235693,6.4325854 3.8597625,6.7177157 3.7137715,6.8735831 3.6061689,6.9884652 3.497636,7.1024728 3.3895683,7.2169175 3.1420305,7.4694171 2.9828992,7.6369769 2.7259012,7.8785552 2.3217768,8.2584323 1.8940306,8.614584 1.4361884,8.9281393 1.0650835,9.1778113 0.69120207,9.4373924 0.26344745,9.5810405 c 0,0 8.1201e-4,5.556e-4 8.1201e-4,5.556e-4 z" /><path
       style="fill:none;stroke:#000000;stroke-width:0.264583;stroke-opacity:1"
       id="path3821"
       d="M 6.2012779,5.0639704 C 6.1664725,5.1769819 6.1236944,5.2871872 6.0823612,5.3979127 6.034203,5.5290931 5.976799,5.6564841 5.9140827,5.7812656 5.8630795,5.8826378 5.8077234,5.981783 5.7532383,6.0813185 5.6919772,6.1982357 5.6274554,6.3133636 5.5628844,6.4284703 5.4825838,6.5739546 5.399112,6.717548 5.3118768,6.8589797 5.2046904,7.0224072 5.088927,7.1798933 4.9694867,7.334506 4.8027618,7.5447347 4.6045609,7.7265622 4.406465,7.9064042 4.1773842,8.1125964 3.9279917,8.2939524 3.6859823,8.484237 3.5391883,8.6032426 3.3872614,8.7156387 3.2384566,8.8320596 3.1577626,8.8935019 3.0768268,8.9545072 2.9910431,9.0086946 2.8890042,9.0713429 2.7844107,9.1296677 2.6801873,9.1885663 2.5471539,9.2637307 2.4119673,9.3349129 2.2775687,9.4075736 2.172417,9.4654795 2.066927,9.5228523 1.9637259,9.5841954 1.8939904,9.6244388 1.8230141,9.6624509 1.7538324,9.7036555 1.6673606,9.75753 1.5815661,9.8124869 1.4948792,9.8660227 1.3894155,9.9289615 1.2835162,9.9911902 1.1786069,10.055052 c -0.068062,0.04241 -0.1382598,0.0813 -0.20619262,0.123898 -0.0736987,0.05173 -0.15229986,0.09555 -0.23147322,0.138171 -0.0516507,0.02626 -0.0261123,0.01375 -0.0765748,0.03761 0,0 8.2021e-4,5.29e-4 8.2021e-4,5.29e-4 v 0 c 0.0504626,-0.02387 0.0249243,-0.01136 0.0765746,-0.03762 0.0791751,-0.04262 0.15777826,-0.08644 0.23148076,-0.138173 0.0679331,-0.04259 0.13812877,-0.08149 0.20618857,-0.1239 C 1.2843355,9.9917042 1.390232,9.9294724 1.4956968,9.8665373 1.5823852,9.8130017 1.6681854,9.7580515 1.7546591,9.7041781 1.8238409,9.6629748 1.8948159,9.6249618 1.9645487,9.5847153 2.067745,9.52337 2.1732315,9.465997 2.2783797,9.4080906 2.4127773,9.3354265 2.5479657,9.2642464 2.6810004,9.1890825 2.785228,9.1301852 2.8898257,9.071862 2.9918675,9.0092124 3.0776518,8.9550226 3.1585876,8.8940144 3.2392778,8.8325636 3.3880737,8.7161361 3.5399945,8.6037361 3.6867832,8.4847281 3.9287846,8.2944331 4.1781687,8.1130665 4.4072553,7.906881 4.6053578,7.727036 4.8035786,7.545216 4.970309,7.3349831 5.0897504,7.1803667 5.2055185,7.02288 5.3127086,6.8594504 5.3999447,6.7180179 5.483422,6.5744259 5.5637234,6.4289407 5.6282973,6.3138353 5.6928231,6.1987091 5.7540847,6.0817918 c 0.054486,-0.099536 0.109845,-0.1986814 0.1608434,-0.3000573 0.062718,-0.1247849 0.1201184,-0.2521816 0.16828,-0.3833641 0.041335,-0.110726 0.084115,-0.2209305 0.1189395,-0.3339372 0,0 -8.731e-4,-4.763e-4 -8.731e-4,-4.763e-4 z" /><path
       style="fill:none;stroke:#000000;stroke-width:0.264583;stroke-opacity:1"
       id="path3823"
       d="M 7.7692852,4.9585049 C 7.6885122,5.0955609 7.6217176,5.2401009 7.5506703,5.3822747 7.4484248,5.5857414 7.3721893,5.800518 7.289507,6.0122664 7.2154676,6.2143634 7.1132358,6.4037508 7.0036319,6.5883466 6.9037022,6.7523439 6.7849995,6.9034148 6.6576762,7.0467714 6.5476119,7.1684006 6.4343986,7.287125 6.3230704,7.4075869 6.1972496,7.5498663 6.0703494,7.6911945 5.9433766,7.8324466 5.7653443,8.0237657 5.5853512,8.2131928 5.4105092,8.4074518 5.2859365,8.5467303 5.1633225,8.687682 5.0352282,8.8237562 4.936646,8.9280546 4.8355093,9.0298798 4.7322739,9.1295618 4.6576059,9.2035547 4.5767778,9.2707874 4.4967342,9.3387859 4.3899888,9.4323857 4.2824632,9.5250898 4.1732194,9.6157625 4.0475116,9.7245891 3.9193006,9.8304653 3.7930661,9.938669 c -0.078388,0.067675 -0.1595977,0.132013 -0.2421469,0.194517 -0.062356,0.04492 -0.1249651,0.08947 -0.1848959,0.137616 -0.048596,0.0381 -0.099826,0.07276 -0.1497851,0.109087 -0.027686,0.01891 -0.014499,0.0097 -0.039605,0.02758 0,0 8.466e-4,5.29e-4 8.466e-4,5.29e-4 v 0 c 0.025104,-0.01789 0.011917,-0.0087 0.039603,-0.02758 0.049959,-0.03633 0.1011917,-0.07099 0.1497859,-0.109093 0.059929,-0.04814 0.122537,-0.09269 0.1848911,-0.137615 0.08255,-0.0625 0.163752,-0.126853 0.2421395,-0.1945286 C 3.9201285,9.8309715 4.0483369,9.7250942 4.1740447,9.6162698 4.283294,9.5256007 4.3908247,9.4329 4.4975727,9.3393 4.5776178,9.2713002 4.6584515,9.2040709 4.7331151,9.1300704 4.8363462,9.0303833 4.9374795,8.9285542 5.0360606,8.8242541 5.1641599,8.6881845 5.2867604,8.5472213 5.4113297,8.4079396 5.5861664,8.2136749 5.766155,8.0242422 5.9442079,7.8329408 6.0711815,7.6916901 6.1980772,7.5503587 6.3239006,7.4080822 6.4352389,7.2876285 6.5484483,7.1688993 6.6585102,7.047267 6.785833,6.9039022 6.9045396,6.7528272 7.0044664,6.588821 7.1140708,6.4042205 7.2163145,6.2148317 7.2903502,6.0127281 7.373028,5.800981 7.4492569,5.5862047 7.5515112,5.3827452 7.622559,5.240575 7.6893562,5.0960382 7.770152,4.9589991 c 0,0 -8.467e-4,-5.027e-4 -8.467e-4,-5.027e-4 z" /><path
       style="fill:none;stroke:#000000;stroke-width:0.264583;stroke-opacity:1"
       id="path3825"
       d="M 9.0828303,4.9945826 C 8.9811906,5.2130084 8.8742368,5.4287856 8.7657852,5.6438926 8.5389359,6.1015152 8.2605561,6.5275121 7.9748535,6.9497534 7.7153465,7.3225834 7.4383957,7.6828744 7.1437359,8.0285113 6.9531679,8.2452823 6.7590587,8.4588725 6.5629959,8.6706735 6.4085541,8.8397724 6.2508471,9.00564 6.0865286,9.1651552 5.9929188,9.2599384 5.8898067,9.3442117 5.7882305,9.4300938 5.676012,9.52 5.5585378,9.6031766 5.442736,9.6883819 5.3129058,9.7806249 5.1880716,9.8793955 5.064249,9.9794593 4.9978024,10.031531 4.9359362,10.089115 4.8691773,10.140745 c -0.067018,0.05341 -0.1375688,0.102199 -0.2064578,0.153144 -0.024458,0.01745 -0.048593,0.03533 -0.072538,0.05348 0,0 8.467e-4,5.29e-4 8.467e-4,5.29e-4 v 0 c 0.023942,-0.01815 0.048077,-0.03603 0.072533,-0.05348 C 4.7324486,10.243468 4.803,10.194679 4.8700189,10.14127 4.9367762,10.089638 4.9986456,10.032057 5.0650862,9.9799787 5.1888985,9.8799069 5.3137276,9.7811351 5.4435573,9.6888963 5.5593641,9.6036909 5.6768515,9.5205255 5.7890692,9.4306116 5.8906433,9.344726 5.993753,9.2604488 6.087357,9.1656587 6.2516691,9.0061358 6.4093661,8.8402585 6.5638145,8.6711651 6.7598731,8.4593606 6.9539751,8.2457644 7.144536,8.0289873 7.4391823,7.6833364 7.7161119,7.3230284 7.975624,6.9502001 8.2613271,6.5279536 8.5397191,6.1019628 8.7665871,5.6443443 8.8750557,5.4292468 8.9820236,5.2134777 9.0837013,4.9950708 c 0,0 -8.731e-4,-4.762e-4 -8.731e-4,-4.762e-4 z" /><path
       style="fill:none;stroke:#000000;stroke-width:0.264583;stroke-opacity:1"
       id="path3827"
       d="M 10.164966,4.9660624 C 10.089636,5.1177922 10.0276,5.2754675 9.9643823,5.4324816 9.8440382,5.7193296 9.7133306,6.0017233 9.5810598,6.2832278 9.5597794,6.3278244 9.5385958,6.3724667 9.5172203,6.4170173 9.4758805,6.503177 9.444058,6.5703555 9.3995575,6.6544634 9.3361919,6.774227 9.2672888,6.8909048 9.1982723,7.0074501 9.0670958,7.2322956 8.9174232,7.4452707 8.7635441,7.6549358 8.7395729,7.6876398 8.7159117,7.7205717 8.6916336,7.7530477 8.6373942,7.8256013 8.5768073,7.9020267 8.5235141,7.9749107 8.4174874,8.1199132 8.3171503,8.2689924 8.2165919,8.4177941 8.0550858,8.666732 7.9000627,8.9198176 7.7529684,9.1775215 7.6752026,9.3208217 7.5980159,9.464278 7.5136758,9.6038383 7.4345135,9.739714 7.3500143,9.8722348 7.2634175,10.003449 c -0.04972,0.07431 -0.09905,0.149115 -0.1560862,0.218125 -0.02222,0.02688 -0.045653,0.05274 -0.068299,0.07926 0,0 8.467e-4,5.03e-4 8.467e-4,5.03e-4 v 0 c 0.022646,-0.02653 0.046079,-0.05238 0.068297,-0.07927 C 7.16521,10.153047 7.214539,10.07824 7.2642606,10.003931 7.3508567,9.8727193 7.4353541,9.7401956 7.5145208,9.6043214 7.5988613,9.4647601 7.6760471,9.3213025 7.753801,9.1779946 7.9008805,8.9202857 8.0558816,8.6671887 8.2173955,8.4182584 8.3179511,8.2694559 8.4182909,8.1203812 8.5243264,7.9753859 8.5776259,7.9025029 8.638215,7.8260833 8.6924564,7.753528 8.7167346,7.7210522 8.740396,7.6881193 8.7643659,7.6554152 8.9182487,7.4457493 9.067915,7.2327658 9.1990925,7.0079176 9.2681125,6.8913726 9.3370203,6.7746945 9.4003856,6.6549288 9.4448885,6.5708146 9.4767013,6.5036435 9.5180421,6.4174763 9.5394178,6.372925 9.5606006,6.3282824 9.58188,6.2836853 9.7141465,6.0021776 9.8448504,5.7197807 9.965216,5.4329406 10.02844,5.2759321 10.090482,5.1182621 10.165835,4.9665471 c 0,0 -8.73e-4,-4.762e-4 -8.73e-4,-4.762e-4 z" /><path
       style="fill:none;stroke:#000000;stroke-width:0.264583;stroke-opacity:1"
       id="path3829"
       d="M 0.15439454,7.4075972 C 0.32327995,7.2388335 0.48639399,7.0643982 0.65064562,6.8911517 0.87528118,6.654152 1.1063157,6.4234792 1.3380441,6.1934687 1.5011428,6.0300393 1.6639001,5.8662792 1.8276387,5.7034847 1.9456718,5.5813769 2.0647704,5.4604099 2.1858648,5.3413363 c 0.062326,-0.061469 0.1262094,-0.121548 0.1846227,-0.1868226 0,0 -8.467e-4,-5.027e-4 -8.467e-4,-5.027e-4 v 0 C 2.3112359,5.219288 2.2473643,5.2793733 2.1850426,5.340841 2.0639515,5.4599175 1.9448514,5.5808824 1.8268223,5.7029937 1.6630864,5.8657883 1.5003447,6.0295615 1.3372469,6.1929893 1.1055252,6.4230067 0.8744932,6.6536823 0.64985518,6.8906797 0.48559918,7.0639251 0.32247525,7.2383556 0.15355452,7.4070873 c 0,0 8.4032e-4,5.292e-4 8.4032e-4,5.292e-4 z" /></g></svg>
